<?xml version="1.0" encoding="UTF-8" standalone="no"?>
<svg
   xmlns:dc="http://purl.org/dc/elements/1.1/"
   xmlns:cc="http://creativecommons.org/ns#"
   xmlns:rdf="http://www.w3.org/1999/02/22-rdf-syntax-ns#"
   xmlns:svg="http://www.w3.org/2000/svg"
   xmlns="http://www.w3.org/2000/svg"
   height="128"
   width="128"
   id="svg2"
   xml:space="preserve"
   enable-background="new 0 0 100 100"
   viewBox="0 0 128 128"
   y="0px"
   x="0px"
   version="1.1"><metadata
     id="metadata30"><rdf:RDF><cc:Work
         rdf:about=""><dc:format>image/svg+xml</dc:format><dc:type
           rdf:resource="http://purl.org/dc/dcmitype/StillImage" /><dc:title></dc:title></cc:Work></rdf:RDF></metadata><defs
     id="defs28"><filter
       height="1.1393279"
       y="-0.069663937"
       width="1.1393324"
       x="-0.069666183"
       id="filter4284"
       style="color-interpolation-filters:sRGB"><feGaussianBlur
         id="feGaussianBlur4286"
         stdDeviation="1.2" /></filter><filter
       height="1.1393279"
       y="-0.069663937"
       width="1.1393279"
       x="-0.069663935"
       id="filter4288"
       style="color-interpolation-filters:sRGB"><feGaussianBlur
         id="feGaussianBlur4290"
         stdDeviation="1.2" /></filter><filter
       height="1.1393279"
       y="-0.069663937"
       width="1.1393324"
       x="-0.069666178"
       id="filter4292"
       style="color-interpolation-filters:sRGB"><feGaussianBlur
         id="feGaussianBlur4294"
         stdDeviation="1.2" /></filter><filter
       height="1.1393279"
       y="-0.069663935"
       width="1.1393324"
       x="-0.069666183"
       id="filter4296"
       style="color-interpolation-filters:sRGB"><feGaussianBlur
         id="feGaussianBlur4298"
         stdDeviation="1.2" /></filter><filter
       height="1.1393279"
       y="-0.069663935"
       width="1.1393279"
       x="-0.069663935"
       id="filter4300"
       style="color-interpolation-filters:sRGB"><feGaussianBlur
         id="feGaussianBlur4302"
         stdDeviation="1.2" /></filter><filter
       height="1.1393279"
       y="-0.069663935"
       width="1.1393324"
       x="-0.069666178"
       id="filter4304"
       style="color-interpolation-filters:sRGB"><feGaussianBlur
         id="feGaussianBlur4306"
         stdDeviation="1.2" /></filter><filter
       height="1.1393279"
       y="-0.069663937"
       width="1.1393324"
       x="-0.069666178"
       id="filter4308"
       style="color-interpolation-filters:sRGB"><feGaussianBlur
         id="feGaussianBlur4310"
         stdDeviation="1.2" /></filter><filter
       height="1.1393279"
       y="-0.069663937"
       width="1.1393279"
       x="-0.069663935"
       id="filter4312"
       style="color-interpolation-filters:sRGB"><feGaussianBlur
         id="feGaussianBlur4314"
         stdDeviation="1.2" /></filter><filter
       height="1.1393279"
       y="-0.069663937"
       width="1.1393324"
       x="-0.069666178"
       id="filter4316"
       style="color-interpolation-filters:sRGB"><feGaussianBlur
         id="feGaussianBlur4318"
         stdDeviation="1.2" /></filter></defs><path
     style="fill:#00aea2;fill-opacity:1;filter:url(#filter4316)"
     id="path4"
     d="m 44.334667,45.341333 -39.3293337,0 C 4.4506667,45.341333 4,44.890667 4,44.336 L 4,5.005333 C 4,4.450667 4.4506667,4 5.0053333,4 L 44.334667,4 C 44.890667,4 45.34,4.450667 45.34,5.005333 l 0,39.330667 c 0.0013,0.554667 -0.449333,1.005333 -1.005333,1.005333 z m -38.3240003,-2.010666 37.3186663,0 0,-37.32 -37.3186663,0 0,37.32 z" /><path
     style="fill:#00aea2;fill-opacity:1;filter:url(#filter4312)"
     id="path6"
     d="m 83.665333,45.341333 -39.330666,0 c -0.556,0 -1.005334,-0.450666 -1.005334,-1.005333 l 0,-39.330667 C 43.329333,4.450667 43.778667,4 44.334667,4 l 39.330666,0 c 0.556,0 1.005334,0.450667 1.005334,1.005333 l 0,39.330667 c -0.0013,0.554667 -0.450667,1.005333 -1.005334,1.005333 z M 45.34,43.330667 l 37.318667,0 0,-37.32 -37.318667,0 0,37.32 z" /><path
     style="fill:#00aea2;fill-opacity:1;filter:url(#filter4308)"
     id="path8"
     d="m 122.99467,45.341333 -39.329337,0 c -0.556,0 -1.005333,-0.450666 -1.005333,-1.005333 l 0,-39.330667 C 82.658667,4.450667 83.109333,4 83.665333,4 L 122.99467,4 C 123.54933,4 124,4.450667 124,5.005333 L 124,44.336 c 0,0.554667 -0.45067,1.005333 -1.00533,1.005333 z m -38.325337,-2.010666 37.318667,0 0,-37.32 -37.318667,0 0,37.32 z" /><path
     style="fill:#00aea2;fill-opacity:1;filter:url(#filter4304)"
     id="path10"
     d="m 44.334667,84.670667 -39.3293337,0 C 4.4506667,84.670667 4,84.221333 4,83.664 L 4,44.336 c 0,-0.557333 0.4506667,-1.006667 1.0053333,-1.006667 l 39.3293337,0 c 0.556,0 1.005333,0.449334 1.005333,1.006667 l 0,39.328 c 0.0013,0.557333 -0.449333,1.006667 -1.005333,1.006667 z m -38.3240003,-2.012 37.3186663,0 0,-37.317334 -37.3186663,0 0,37.317334 z" /><path
     style="fill:#00aea2;fill-opacity:1;filter:url(#filter4300)"
     id="path12"
     d="m 83.665333,84.670667 -39.330666,0 c -0.556,0 -1.005334,-0.449334 -1.005334,-1.006667 l 0,-39.328 c 0,-0.557333 0.449334,-1.006667 1.005334,-1.006667 l 39.330666,0 c 0.556,0 1.005334,0.449334 1.005334,1.006667 l 0,39.328 c -0.0013,0.557333 -0.450667,1.006667 -1.005334,1.006667 z m -38.325333,-2.012 37.318667,0 0,-37.317334 -37.318667,0 0,37.317334 z" /><path
     style="fill:#00aea2;fill-opacity:1;filter:url(#filter4296)"
     id="path14"
     d="m 122.99467,84.670667 -39.329337,0 c -0.556,0 -1.005333,-0.449334 -1.005333,-1.006667 l 0,-39.328 c 0,-0.557333 0.450667,-1.006667 1.005333,-1.006667 l 39.329337,0 c 0.556,0 1.00533,0.449334 1.00533,1.006667 l 0,39.328 c 0,0.557333 -0.45067,1.006667 -1.00533,1.006667 z m -38.325337,-2.012 37.318667,0 0,-37.317334 -37.318667,0 0,37.317334 z" /><path
     style="fill:#00aea2;fill-opacity:1;filter:url(#filter4292)"
     id="path16"
     d="M 44.334667,124 5.0053333,124 C 4.4506667,124 4,123.54933 4,122.99467 L 4,83.664 c 0,-0.554667 0.4506667,-1.005333 1.0053333,-1.005333 l 39.3293337,0 c 0.556,0 1.005333,0.450666 1.005333,1.005333 l 0,39.33067 C 45.341333,123.54933 44.890667,124 44.334667,124 Z m -38.3240003,-2.01067 37.3186663,0 0,-37.319997 -37.3186663,0 0,37.319997 z" /><path
     style="fill:#00aea2;fill-opacity:1;filter:url(#filter4288)"
     id="path18"
     d="m 83.665333,124 -39.330666,0 c -0.556,0 -1.005334,-0.45067 -1.005334,-1.00533 l 0,-39.33067 c 0,-0.554667 0.449334,-1.005333 1.005334,-1.005333 l 39.330666,0 c 0.556,0 1.005334,0.450666 1.005334,1.005333 l 0,39.33067 C 84.669333,123.54933 84.22,124 83.665333,124 Z M 45.34,121.98933 l 37.318667,0 0,-37.319997 -37.318667,0 0,37.319997 z" /><path
     style="fill:#00aea2;fill-opacity:1;filter:url(#filter4284)"
     id="path20"
     d="m 122.99467,124 -39.329337,0 C 83.109333,124 82.66,123.54933 82.66,122.99467 l 0,-39.33067 c 0,-0.554667 0.450667,-1.005333 1.005333,-1.005333 l 39.329337,0 c 0.556,0 1.00533,0.450666 1.00533,1.005333 l 0,39.33067 C 124,123.54933 123.54933,124 122.99467,124 Z m -38.325337,-2.01067 37.318667,0 0,-37.319997 -37.318667,0 0,37.319997 z" /><g
     style="display:inline"
     id="layer1"><g
       id="g4161"
       transform="matrix(1.7307692,0,0,1.7307692,-22.53846,-1670.8576)"><path
         id="path4163"
         overflow="visible"
         display="inline"
         visibility="visible"
         d="m 46.375,976.36217 -1.8125,6.3125 c -1.64186,0.4523 -3.20781,1.1134 -4.65625,1.9375 l -5.71875,-3.1875 -5.125,5.125 3.1875,5.71875 c -0.8241,1.44842 -1.48518,3.0144 -1.9375,4.65625 l -6.3125,1.8125 0,7.25003 6.3125,1.8125 c 0.45232,1.6418 1.1134,3.2078 1.9375,4.6562 l -3.1875,5.7188 5.125,5.125 5.71875,-3.1875 c 1.44844,0.8241 3.01439,1.4852 4.65625,1.9375 l 1.8125,6.3125 7.25,0 1.8125,-6.3125 c 1.64185,-0.4523 3.20782,-1.1134 4.65625,-1.9375 l 5.71875,3.1875 5.125,-5.125 -3.1875,-5.7188 c 0.8241,-1.4484 1.48518,-3.0144 1.9375,-4.6562 l 6.3125,-1.8125 0,-7.25003 -6.3125,-1.8125 c -0.45232,-1.64185 -1.1134,-3.20783 -1.9375,-4.65625 l 3.1875,-5.71875 -5.125,-5.125 -5.71875,3.1875 c -1.44843,-0.8241 -3.0144,-1.4852 -4.65625,-1.9375 l -1.8125,-6.3125 -7.25,0 z m 3.625,14 c 6.60373,0 12,5.39631 12,12.00003 0,6.6037 -5.39627,12 -12,12 -6.60373,0 -12,-5.3963 -12,-12 0,-6.60372 5.39627,-12.00003 12,-12.00003 z m 0,4 c -4.44195,0 -8,3.55809 -8,8.00003 0,4.4419 3.55805,8 8,8 4.44195,0 8,-3.5581 8,-8 0,-4.44194 -3.55805,-8.00003 -8,-8.00003 z"
         style="color:#000000;display:inline;overflow:visible;visibility:visible;fill:#2f2147;fill-opacity:1;stroke:none;marker:none;enable-background:accumulate" /></g></g></svg>